<?xml version="1.0" encoding="UTF-8" ?>
<svg version="1.1" width="64" height="64" xmlns="http://www.w3.org/2000/svg" shape-rendering="crispEdges">
<rect x="40" y="0" width="2" height="2" fill="#FFFFE4" />
<rect x="42" y="0" width="2" height="2" fill="#FFFFE4" />
<rect x="40" y="2" width="2" height="2" fill="#FFFFE4" />
<rect x="42" y="2" width="2" height="2" fill="#FFFFE4" />
<rect x="38" y="4" width="2" height="2" fill="#FFFFE4" />
<rect x="40" y="4" width="2" height="2" fill="#293B49" />
<rect x="42" y="4" width="2" height="2" fill="#293B49" />
<rect x="44" y="4" width="2" height="2" fill="#FFFFE4" />
<rect x="38" y="6" width="2" height="2" fill="#FFFFE4" />
<rect x="40" y="6" width="2" height="2" fill="#293B49" />
<rect x="42" y="6" width="2" height="2" fill="#293B49" />
<rect x="44" y="6" width="2" height="2" fill="#FFFFE4" />
<rect x="36" y="8" width="2" height="2" fill="#FFFFE4" />
<rect x="38" y="8" width="2" height="2" fill="#293B49" />
<rect x="40" y="8" width="2" height="2" fill="#293B49" />
<rect x="42" y="8" width="2" height="2" fill="#293B49" />
<rect x="44" y="8" width="2" height="2" fill="#293B49" />
<rect x="46" y="8" width="2" height="2" fill="#FFFFE4" />
<rect x="36" y="10" width="2" height="2" fill="#FFFFE4" />
<rect x="38" y="10" width="2" height="2" fill="#293B49" />
<rect x="40" y="10" width="2" height="2" fill="#293B49" />
<rect x="42" y="10" width="2" height="2" fill="#293B49" />
<rect x="44" y="10" width="2" height="2" fill="#293B49" />
<rect x="46" y="10" width="2" height="2" fill="#FFFFE4" />
<rect x="34" y="12" width="2" height="2" fill="#FFFFE4" />
<rect x="36" y="12" width="2" height="2" fill="#293B49" />
<rect x="38" y="12" width="2" height="2" fill="#293B49" />
<rect x="40" y="12" width="2" height="2" fill="#293B49" />
<rect x="42" y="12" width="2" height="2" fill="#293B49" />
<rect x="44" y="12" width="2" height="2" fill="#293B49" />
<rect x="46" y="12" width="2" height="2" fill="#FFFFE4" />
<rect x="34" y="14" width="2" height="2" fill="#FFFFE4" />
<rect x="36" y="14" width="2" height="2" fill="#293B49" />
<rect x="38" y="14" width="2" height="2" fill="#293B49" />
<rect x="40" y="14" width="2" height="2" fill="#293B49" />
<rect x="42" y="14" width="2" height="2" fill="#293B49" />
<rect x="44" y="14" width="2" height="2" fill="#293B49" />
<rect x="46" y="14" width="2" height="2" fill="#293B49" />
<rect x="48" y="14" width="2" height="2" fill="#FFFFE4" />
<rect x="32" y="16" width="2" height="2" fill="#FFFFE4" />
<rect x="34" y="16" width="2" height="2" fill="#033E5E" />
<rect x="36" y="16" width="2" height="2" fill="#293B49" />
<rect x="38" y="16" width="2" height="2" fill="#293B49" />
<rect x="40" y="16" width="2" height="2" fill="#293B49" />
<rect x="42" y="16" width="2" height="2" fill="#293B49" />
<rect x="44" y="16" width="2" height="2" fill="#293B49" />
<rect x="46" y="16" width="2" height="2" fill="#293B49" />
<rect x="48" y="16" width="2" height="2" fill="#293B49" />
<rect x="50" y="16" width="2" height="2" fill="#FFFFE4" />
<rect x="52" y="16" width="2" height="2" fill="#FFFFE4" />
<rect x="34" y="18" width="2" height="2" fill="#293B49" />
<rect x="36" y="18" width="2" height="2" fill="#EB9C6E" />
<rect x="38" y="18" width="2" height="2" fill="#293B49" />
<rect x="40" y="18" width="2" height="2" fill="#293B49" />
<rect x="42" y="18" width="2" height="2" fill="#293B49" />
<rect x="44" y="18" width="2" height="2" fill="#293B49" />
<rect x="46" y="18" width="2" height="2" fill="#293B49" />
<rect x="52" y="18" width="2" height="2" fill="#FFFFE4" />
<rect x="26" y="20" width="2" height="2" fill="#033E5E" />
<rect x="32" y="20" width="2" height="2" fill="#FFFFE4" />
<rect x="34" y="20" width="2" height="2" fill="#EB9C6E" />
<rect x="36" y="20" width="2" height="2" fill="#FFB762" />
<rect x="38" y="20" width="2" height="2" fill="#FFB762" />
<rect x="40" y="20" width="2" height="2" fill="#EB9C6E" />
<rect x="42" y="20" width="2" height="2" fill="#293B49" />
<rect x="46" y="20" width="2" height="2" fill="#FF823B" />
<rect x="48" y="20" width="2" height="2" fill="#FFFFE4" />
<rect x="30" y="22" width="2" height="2" fill="#033E5E" />
<rect x="32" y="22" width="2" height="2" fill="#033E5E" />
<rect x="34" y="22" width="2" height="2" fill="#EB9C6E" />
<rect x="36" y="22" width="2" height="2" fill="#293B49" />
<rect x="38" y="22" width="2" height="2" fill="#FFB762" />
<rect x="40" y="22" width="2" height="2" fill="#EB9C6E" />
<rect x="42" y="22" width="2" height="2" fill="#FF823B" />
<rect x="44" y="22" width="2" height="2" fill="#293B49" />
<rect x="26" y="24" width="2" height="2" fill="#033E5E" />
<rect x="28" y="24" width="2" height="2" fill="#033E5E" />
<rect x="30" y="24" width="2" height="2" fill="#293B49" />
<rect x="32" y="24" width="2" height="2" fill="#293B49" />
<rect x="34" y="24" width="2" height="2" fill="#293B49" />
<rect x="36" y="24" width="2" height="2" fill="#EB9C6E" />
<rect x="38" y="24" width="2" height="2" fill="#FFB762" />
<rect x="40" y="24" width="2" height="2" fill="#FFB762" />
<rect x="42" y="24" width="2" height="2" fill="#293B49" />
<rect x="44" y="24" width="2" height="2" fill="#293B49" />
<rect x="26" y="26" width="2" height="2" fill="#033E5E" />
<rect x="28" y="26" width="2" height="2" fill="#033E5E" />
<rect x="30" y="26" width="2" height="2" fill="#033E5E" />
<rect x="32" y="26" width="2" height="2" fill="#293B49" />
<rect x="34" y="26" width="2" height="2" fill="#FFB762" />
<rect x="36" y="26" width="2" height="2" fill="#293B49" />
<rect x="38" y="26" width="2" height="2" fill="#FFB762" />
<rect x="44" y="26" width="2" height="2" fill="#293B49" />
<rect x="26" y="28" width="2" height="2" fill="#033E5E" />
<rect x="28" y="28" width="2" height="2" fill="#033E5E" />
<rect x="30" y="28" width="2" height="2" fill="#033E5E" />
<rect x="32" y="28" width="2" height="2" fill="#EB9C6E" />
<rect x="34" y="28" width="2" height="2" fill="#FFB762" />
<rect x="36" y="28" width="2" height="2" fill="#FFB762" />
<rect x="40" y="28" width="2" height="2" fill="#293B49" />
<rect x="24" y="30" width="2" height="2" fill="#FFFFE4" />
<rect x="30" y="30" width="2" height="2" fill="#033E5E" />
<rect x="32" y="30" width="2" height="2" fill="#033E5E" />
<rect x="34" y="30" width="2" height="2" fill="#EB9C6E" />
<rect x="24" y="32" width="2" height="2" fill="#FFFFE4" />
<rect x="26" y="32" width="2" height="2" fill="#FFB762" />
<rect x="28" y="32" width="2" height="2" fill="#033E5E" />
<rect x="30" y="32" width="2" height="2" fill="#033E5E" />
<rect x="32" y="32" width="2" height="2" fill="#EB9C6E" />
<rect x="34" y="32" width="2" height="2" fill="#EB9C6E" />
<rect x="36" y="32" width="2" height="2" fill="#FFFFE4" />
<rect x="24" y="34" width="2" height="2" fill="#033E5E" />
<rect x="26" y="34" width="2" height="2" fill="#FFB762" />
<rect x="28" y="34" width="2" height="2" fill="#FFB762" />
<rect x="30" y="34" width="2" height="2" fill="#033E5E" />
<rect x="32" y="34" width="2" height="2" fill="#293B49" />
<rect x="34" y="34" width="2" height="2" fill="#FFFFE4" />
<rect x="36" y="34" width="2" height="2" fill="#FFB762" />
<rect x="38" y="34" width="2" height="2" fill="#FFFFE4" />
<rect x="22" y="36" width="2" height="2" fill="#033E5E" />
<rect x="24" y="36" width="2" height="2" fill="#FFB762" />
<rect x="26" y="36" width="2" height="2" fill="#033E5E" />
<rect x="28" y="36" width="2" height="2" fill="#033E5E" />
<rect x="30" y="36" width="2" height="2" fill="#EB9C6E" />
<rect x="32" y="36" width="2" height="2" fill="#FFB762" />
<rect x="34" y="36" width="2" height="2" fill="#FFB762" />
<rect x="36" y="36" width="2" height="2" fill="#FFFFE4" />
<rect x="38" y="36" width="2" height="2" fill="#293B49" />
<rect x="40" y="36" width="2" height="2" fill="#FFFFE4" />
<rect x="42" y="36" width="2" height="2" fill="#FFFFE4" />
<rect x="22" y="38" width="2" height="2" fill="#033E5E" />
<rect x="24" y="38" width="2" height="2" fill="#FFB762" />
<rect x="26" y="38" width="2" height="2" fill="#033E5E" />
<rect x="30" y="38" width="2" height="2" fill="#EB9C6E" />
<rect x="32" y="38" width="2" height="2" fill="#033E5E" />
<rect x="34" y="38" width="2" height="2" fill="#FFFFE4" />
<rect x="36" y="38" width="2" height="2" fill="#FFB762" />
<rect x="38" y="38" width="2" height="2" fill="#FFFFE4" />
<rect x="40" y="38" width="2" height="2" fill="#FFFFE4" />
<rect x="44" y="38" width="2" height="2" fill="#FFB762" />
<rect x="22" y="40" width="2" height="2" fill="#293B49" />
<rect x="24" y="40" width="2" height="2" fill="#033E5E" />
<rect x="28" y="40" width="2" height="2" fill="#033E5E" />
<rect x="30" y="40" width="2" height="2" fill="#FFFFE4" />
<rect x="32" y="40" width="2" height="2" fill="#FFFFE4" />
<rect x="34" y="40" width="2" height="2" fill="#FFFFE4" />
<rect x="36" y="40" width="2" height="2" fill="#FFB762" />
<rect x="38" y="40" width="2" height="2" fill="#FFFFE4" />
<rect x="40" y="40" width="2" height="2" fill="#FFFFE4" />
<rect x="42" y="40" width="2" height="2" fill="#FFB762" />
<rect x="48" y="40" width="2" height="2" fill="#FFB762" />
<rect x="16" y="42" width="2" height="2" fill="#FFFFE4" />
<rect x="22" y="42" width="2" height="2" fill="#FFB762" />
<rect x="24" y="42" width="2" height="2" fill="#033E5E" />
<rect x="26" y="42" width="2" height="2" fill="#293B49" />
<rect x="28" y="42" width="2" height="2" fill="#FFFFE4" />
<rect x="32" y="42" width="2" height="2" fill="#FFFFE4" />
<rect x="34" y="42" width="2" height="2" fill="#FFFFE4" />
<rect x="36" y="42" width="2" height="2" fill="#FFFFE4" />
<rect x="38" y="42" width="2" height="2" fill="#FFFFE4" />
<rect x="40" y="42" width="2" height="2" fill="#FFFFE4" />
<rect x="42" y="42" width="2" height="2" fill="#FFFFE4" />
<rect x="44" y="42" width="2" height="2" fill="#FFB762" />
<rect x="16" y="44" width="2" height="2" fill="#FFFFE4" />
<rect x="18" y="44" width="2" height="2" fill="#FFFFE4" />
<rect x="20" y="44" width="2" height="2" fill="#FFB762" />
<rect x="22" y="44" width="2" height="2" fill="#EB9C6E" />
<rect x="24" y="44" width="2" height="2" fill="#EB9C6E" />
<rect x="28" y="44" width="2" height="2" fill="#293B49" />
<rect x="14" y="46" width="2" height="2" fill="#FFFFE4" />
<rect x="16" y="46" width="2" height="2" fill="#293B49" />
<rect x="18" y="46" width="2" height="2" fill="#293B49" />
<rect x="20" y="46" width="2" height="2" fill="#293B49" />
<rect x="22" y="46" width="2" height="2" fill="#FFFFE4" />
<rect x="24" y="46" width="2" height="2" fill="#EB9C6E" />
<rect x="26" y="46" width="2" height="2" fill="#FFFFE4" />
<rect x="28" y="46" width="2" height="2" fill="#FFFFE4" />
<rect x="12" y="48" width="2" height="2" fill="#FFFFE4" />
<rect x="14" y="48" width="2" height="2" fill="#293B49" />
<rect x="16" y="48" width="2" height="2" fill="#293B49" />
<rect x="18" y="48" width="2" height="2" fill="#293B49" />
<rect x="20" y="48" width="2" height="2" fill="#EB9C6E" />
<rect x="22" y="48" width="2" height="2" fill="#033E5E" />
<rect x="24" y="48" width="2" height="2" fill="#033E5E" />
<rect x="28" y="48" width="2" height="2" fill="#FFFFE4" />
<rect x="30" y="48" width="2" height="2" fill="#FFFFE4" />
<rect x="12" y="50" width="2" height="2" fill="#FFFFE4" />
<rect x="14" y="50" width="2" height="2" fill="#FFFFE4" />
<rect x="16" y="50" width="2" height="2" fill="#293B49" />
<rect x="18" y="50" width="2" height="2" fill="#293B49" />
<rect x="20" y="50" width="2" height="2" fill="#293B49" />
<rect x="22" y="50" width="2" height="2" fill="#293B49" />
<rect x="24" y="50" width="2" height="2" fill="#293B49" />
<rect x="26" y="50" width="2" height="2" fill="#FFFFE4" />
<rect x="28" y="50" width="2" height="2" fill="#033E5E" />
<rect x="14" y="52" width="2" height="2" fill="#FFFFE4" />
<rect x="16" y="52" width="2" height="2" fill="#FFFFE4" />
<rect x="18" y="52" width="2" height="2" fill="#FFB762" />
<rect x="20" y="52" width="2" height="2" fill="#293B49" />
<rect x="22" y="52" width="2" height="2" fill="#293B49" />
<rect x="24" y="52" width="2" height="2" fill="#EB9C6E" />
<rect x="14" y="54" width="2" height="2" fill="#FFFFE4" />
<rect x="16" y="54" width="2" height="2" fill="#293B49" />
<rect x="18" y="54" width="2" height="2" fill="#293B49" />
<rect x="20" y="54" width="2" height="2" fill="#FF823B" />
<rect x="22" y="54" width="2" height="2" fill="#293B49" />
<rect x="24" y="54" width="2" height="2" fill="#293B49" />
<rect x="26" y="54" width="2" height="2" fill="#293B49" />
<rect x="28" y="54" width="2" height="2" fill="#293B49" />
<rect x="14" y="56" width="2" height="2" fill="#293B49" />
<rect x="16" y="56" width="2" height="2" fill="#FFFFE4" />
<rect x="18" y="56" width="2" height="2" fill="#FFB762" />
<rect x="20" y="56" width="2" height="2" fill="#FF823B" />
<rect x="22" y="56" width="2" height="2" fill="#FF823B" />
<rect x="28" y="56" width="2" height="2" fill="#293B49" />
<rect x="10" y="58" width="2" height="2" fill="#FFFFE4" />
<rect x="14" y="58" width="2" height="2" fill="#FFFFE4" />
<rect x="16" y="58" width="2" height="2" fill="#FFB762" />
<rect x="18" y="58" width="2" height="2" fill="#FF823B" />
<rect x="20" y="58" width="2" height="2" fill="#FFFFE4" />
<rect x="22" y="58" width="2" height="2" fill="#FF823B" />
<rect x="24" y="58" width="2" height="2" fill="#293B49" />
<rect x="28" y="58" width="2" height="2" fill="#293B49" />
<rect x="10" y="60" width="2" height="2" fill="#FFFFE4" />
<rect x="12" y="60" width="2" height="2" fill="#FFFFE4" />
<rect x="16" y="60" width="2" height="2" fill="#FFFFE4" />
<rect x="18" y="60" width="2" height="2" fill="#FF823B" />
<rect x="20" y="60" width="2" height="2" fill="#FF823B" />
<rect x="24" y="60" width="2" height="2" fill="#293B49" />
<rect x="26" y="60" width="2" height="2" fill="#293B49" />
<rect x="14" y="62" width="2" height="2" fill="#293B49" />
<rect x="16" y="62" width="2" height="2" fill="#293B49" />
<rect x="18" y="62" width="2" height="2" fill="#293B49" />
<rect x="20" y="62" width="2" height="2" fill="#293B49" />
<rect x="22" y="62" width="2" height="2" fill="#FFFFE4" />
</svg>